<svg xmlns="http://www.w3.org/2000/svg" viewBox="0 0 256 256" role="img" aria-label="Sentinel AI shield">
  <defs>
    <linearGradient id="shieldGrad" x1="0" y1="0" x2="1" y2="1">
      <stop offset="0%" stop-color="#22d3ee" />
      <stop offset="100%" stop-color="#0ea5e9" />
    </linearGradient>
    <linearGradient id="glowGrad" x1="0" y1="0" x2="0" y2="1">
      <stop offset="0%" stop-color="#67e8f9" stop-opacity="0.35" />
      <stop offset="100%" stop-color="#0ea5e9" stop-opacity="0" />
    </linearGradient>
  </defs>

  <rect width="256" height="256" rx="56" fill="#020617" />
  <path d="M128 28L48 60v64c0 54 33 92 80 104 47-12 80-50 80-104V60l-80-32z" fill="url(#shieldGrad)" fill-opacity="0.18"/>
  <path d="M128 28L48 60v64c0 54 33 92 80 104 47-12 80-50 80-104V60l-80-32z" fill="none" stroke="url(#shieldGrad)" stroke-width="16" stroke-linejoin="round"/>
  <path d="M128 74v106" stroke="#67e8f9" stroke-width="14" stroke-linecap="round"/>
  <path d="M92 112l36-36 36 36" fill="none" stroke="#67e8f9" stroke-width="14" stroke-linecap="round" stroke-linejoin="round"/>
  <ellipse cx="128" cy="114" rx="74" ry="60" fill="url(#glowGrad)" />
</svg>
